<svg width="182" height="48" viewBox="0 0 182 48" fill="none" xmlns="http://www.w3.org/2000/svg">
<path d="M2.08705 45.8775H3.20362V39.2343H5.29067V38.3004H0V39.2343H2.08705V45.8775Z" fill="white"/>
<path d="M7.58919 42.6939H8.91446L10.4067 45.8775H11.6381L10.0102 42.5878C11.0328 42.3543 11.4815 41.7069 11.4815 40.4547C11.4815 39.7224 11.3146 39.2237 10.9493 38.8522C10.5632 38.4596 10.0415 38.3004 9.12317 38.3004H6.47262V45.8775H7.58919V42.6939ZM7.56832 41.7918V39.2131H9.01882C9.95799 39.2131 10.3754 39.6057 10.3754 40.5078C10.3754 41.3886 9.97886 41.7918 9.08143 41.7918H7.56832Z" fill="white"/>
<path d="M17.1817 44.2963L17.7035 45.8775H18.9139L16.2008 38.3004H15.126L12.4128 45.8775H13.6233L14.145 44.2963H17.1817ZM16.9104 43.3837H14.4164L15.6686 39.68L16.9104 43.3837Z" fill="white"/>
<path d="M19.5755 45.8775H20.6608V40.2106L23.9792 45.8775H25.0645V38.3004H23.9792V43.9673L20.6608 38.3004H19.5755V45.8775Z" fill="white"/>
<path d="M29.466 42.6939H30.8643V43.2776C30.8643 44.4767 30.353 45.0604 29.299 45.0604C28.1616 45.0604 27.7338 44.4555 27.7338 42.8212V41.378C27.7338 39.7543 28.1616 39.1388 29.2886 39.1388C30.113 39.1388 30.6035 39.542 30.7078 40.3167L31.7409 40.2424C31.6678 38.9159 30.8017 38.2155 29.2469 38.2155C28.3077 38.2155 27.6711 38.4702 27.2016 39.022C26.7737 39.5208 26.6172 40.1363 26.6172 41.3037V42.8849C26.6172 43.9673 26.7424 44.551 27.0972 45.0392C27.5564 45.6865 28.2451 45.9837 29.3199 45.9837C30.28 45.9837 30.9583 45.7078 31.4278 45.1347C31.8244 44.6465 31.9705 44.0841 31.9705 43.0335V41.8131H29.466V42.6939Z" fill="white"/>
<path d="M36.5967 45.8775H37.7133V39.2343H39.8003V38.3004H34.5097V39.2343H36.5967V45.8775Z" fill="white"/>
<path d="M40.9718 45.8775H42.0884V42.5135H44.9477V45.8775H46.0642V38.3004H44.9477V41.5796H42.0884V38.3004H40.9718V45.8775Z" fill="white"/>
<path d="M47.6263 43.0122C47.6263 44.0098 47.7724 44.5935 48.1376 45.071C48.6072 45.6971 49.2855 45.9837 50.3185 45.9837C51.2682 45.9837 51.8943 45.7502 52.3847 45.1984C52.8334 44.7102 53.0004 44.0947 53.0004 43.0122V41.1657C53.0004 40.1682 52.8543 39.5845 52.4891 39.1069C52.0195 38.4808 51.3412 38.1943 50.3185 38.1943C49.3585 38.1943 48.7324 38.4278 48.2419 38.9796C47.7932 39.4784 47.6263 40.0833 47.6263 41.1657V43.0122ZM51.8838 42.9061C51.8838 44.4237 51.4142 45.0604 50.3185 45.0604C49.2124 45.0604 48.7428 44.4237 48.7428 42.9061V41.2718C48.7428 39.7543 49.2124 39.1176 50.3185 39.1176C51.4142 39.1176 51.8838 39.7543 51.8838 41.2718V42.9061ZM50.3081 36.6767L50.976 37.5257H52.0404L50.6734 36.0188H49.9429L48.5863 37.5257H49.6507L50.3081 36.6767Z" fill="white"/>
<path d="M54.5641 45.8775H55.6494V40.2106L58.9678 45.8775H60.0531V38.3004H58.9678V43.9673L55.6494 38.3004H54.5641V45.8775Z" fill="white"/>
<path d="M64.4546 42.6939H65.853V43.2776C65.853 44.4767 65.3416 45.0604 64.2877 45.0604C63.1502 45.0604 62.7224 44.4555 62.7224 42.8212V41.378C62.7224 39.7543 63.1502 39.1388 64.2772 39.1388C65.1016 39.1388 65.5921 39.542 65.6964 40.3167L66.7295 40.2424C66.6565 38.9159 65.7903 38.2155 64.2355 38.2155C63.2963 38.2155 62.6598 38.4702 62.1902 39.022C61.7623 39.5208 61.6058 40.1363 61.6058 41.3037V42.8849C61.6058 43.9673 61.731 44.551 62.0858 45.0392C62.545 45.6865 63.2337 45.9837 64.3085 45.9837C65.2686 45.9837 65.9469 45.7078 66.4165 45.1347C66.813 44.6465 66.9591 44.0841 66.9591 43.0335V41.8131H64.4546V42.6939Z" fill="white"/>
<path d="M71.5853 45.8775H72.7019V39.2343H74.7889V38.3004H69.4983V39.2343H71.5853V45.8775Z" fill="white"/>
<path d="M75.9605 45.8775H77.077V38.3004H75.9605V45.8775Z" fill="white"/>
<path d="M78.8179 45.8775H79.9032V40.2106L83.2216 45.8775H84.3069V38.3004H83.2216V43.9673L79.9032 38.3004H78.8179V45.8775Z" fill="white"/>
<path d="M87.8754 41.5902H87.0406V42.5029H87.8754V45.8775H90.3277C92.206 45.8988 93.1347 44.9224 93.0826 42.9698V41.2082C93.1347 39.2555 92.206 38.2686 90.3277 38.3004H87.8754V41.5902ZM88.9919 41.5902V39.2131H90.1294C91.4338 39.1812 91.9556 39.7755 91.966 41.3037V42.8637C91.9556 44.4024 91.4338 44.9967 90.1294 44.9649H88.9919V42.5029H90.5572V41.5902H88.9919Z" fill="white"/>
<path d="M94.6562 45.8775H95.7728V38.3004H94.6562V45.8775Z" fill="white"/>
<path d="M97.5241 45.8775H102.022V44.9437H98.6303V42.5135H101.49V41.5796H98.6303V39.2343H101.99V38.3004H97.5241V45.8775ZM99.7782 36.6767L100.446 37.5257H101.5L100.143 36.0188H99.4129L98.0459 37.5257H99.1103L99.7782 36.6767ZM99.2877 48H100.321V46.7902H99.2877V48Z" fill="white"/>
<path d="M103.306 45.8775H104.391V40.2106L107.71 45.8775H108.795V38.3004H107.71V43.9673L104.391 38.3004H103.306V45.8775Z" fill="white"/>
<path d="M113.699 45.8775H114.816V39.2343H116.903V38.3004H111.612V39.2343H113.699V45.8775Z" fill="white"/>
<path d="M117.86 38.3004V43.0759C117.86 44.0841 117.943 44.551 118.214 44.9755C118.663 45.6653 119.373 45.9837 120.479 45.9837C121.512 45.9837 122.159 45.7184 122.629 45.1029C122.983 44.6571 123.088 44.169 123.088 43.0759V40.6033C123.63 40.3167 123.818 40.2106 124.027 40.062C124.611 39.6376 124.862 39.2131 124.862 38.6506C124.862 38.4808 124.851 38.3747 124.789 38.1837H123.849C123.964 38.4065 124.006 38.5551 124.006 38.778C124.006 39.2767 123.766 39.5845 123.088 39.9029V38.3004H121.971V43.0759C121.971 43.7127 121.919 44.0735 121.794 44.3494C121.554 44.8482 121.157 45.0604 120.479 45.0604C119.832 45.0604 119.467 44.88 119.206 44.4449C119.039 44.1478 118.976 43.8082 118.976 43.0759V38.3004H117.86ZM121.001 37.6531C121.011 37.3241 121.022 37.271 121.188 37.0588C121.481 36.698 121.522 36.6237 121.522 36.3796C121.522 35.8702 121.157 35.5731 120.531 35.5731C120.218 35.5731 120.009 35.6155 119.644 35.7429L119.821 36.3478C120.072 36.231 120.208 36.1992 120.354 36.1992C120.542 36.1992 120.646 36.2841 120.646 36.422C120.646 36.5069 120.615 36.5918 120.552 36.6873C120.291 37.0482 120.27 37.1118 120.26 37.5151V37.6531H121.001Z" fill="white"/>
<path d="M128.508 45.8775H129.625V39.2343H131.712V38.3004H126.421V39.2343H128.508V45.8775Z" fill="white"/>
<path d="M132.523 43.0122C132.523 44.0098 132.669 44.5935 133.034 45.071C133.504 45.6971 134.182 45.9837 135.215 45.9837C136.165 45.9837 136.791 45.7502 137.281 45.1984C137.73 44.7102 137.897 44.0947 137.897 43.0122V41.1657C137.897 40.1682 137.751 39.5845 137.385 39.1069C136.916 38.4808 136.238 38.1943 135.215 38.1943C134.255 38.1943 133.629 38.4278 133.138 38.9796C132.69 39.4784 132.523 40.0833 132.523 41.1657V43.0122ZM136.78 42.9061C136.78 44.4237 136.311 45.0604 135.215 45.0604C134.109 45.0604 133.639 44.4237 133.639 42.9061V41.2718C133.639 39.7543 134.109 39.1176 135.215 39.1176C136.311 39.1176 136.78 39.7543 136.78 41.2718V42.9061ZM135.528 36.4963C135.538 36.2735 135.538 36.2416 135.674 36.1143C135.904 35.8702 135.945 35.7959 135.945 35.6155C135.945 35.2335 135.632 35 135.111 35C134.829 35 134.631 35.0424 134.359 35.138L134.516 35.6261C134.714 35.5306 134.829 35.4988 134.954 35.4988C135.111 35.4988 135.194 35.5412 135.194 35.6261C135.194 35.6792 135.163 35.7535 135.121 35.8065C134.891 36.0824 134.881 36.1249 134.871 36.4963H135.528ZM135.194 37.2286L135.841 37.8016H136.853L135.538 36.6661H134.839L133.535 37.8016H134.537L135.194 37.2286Z" fill="white"/>
<path d="M139.461 45.8775H140.546V40.2106L143.864 45.8775H144.949V38.3004H143.864V43.9673L140.546 38.3004H139.461V45.8775Z" fill="white"/>
<path d="M149.351 42.6939H150.749V43.2776C150.749 44.4767 150.238 45.0604 149.184 45.0604C148.047 45.0604 147.619 44.4555 147.619 42.8212V41.378C147.619 39.7543 148.047 39.1388 149.174 39.1388C149.998 39.1388 150.488 39.542 150.593 40.3167L151.626 40.2424C151.553 38.9159 150.687 38.2155 149.132 38.2155C148.193 38.2155 147.556 38.4702 147.087 39.022C146.659 39.5208 146.502 40.1363 146.502 41.3037V42.8849C146.502 43.9673 146.627 44.551 146.982 45.0392C147.441 45.6865 148.13 45.9837 149.205 45.9837C150.165 45.9837 150.843 45.7078 151.313 45.1347C151.709 44.6465 151.855 44.0841 151.855 43.0335V41.8131H149.351V42.6939Z" fill="white"/>
<path d="M155.146 45.8775H156.263V42.5135H159.122V45.8775H160.238V38.3004H159.122V41.5796H156.263V38.3004H155.146V45.8775Z" fill="white"/>
<path d="M167.467 38.1837C167.582 38.3959 167.623 38.5551 167.623 38.7673C167.623 39.16 167.456 39.4147 166.987 39.7331C166.611 38.6931 165.797 38.1943 164.482 38.1943C163.533 38.1943 162.907 38.4384 162.416 38.9796C161.967 39.4784 161.8 40.0833 161.8 41.1657V43.0122C161.8 44.0098 161.947 44.5935 162.312 45.071C162.781 45.6971 163.46 45.9837 164.493 45.9837C165.442 45.9837 166.068 45.7502 166.559 45.1984C167.008 44.7102 167.175 44.0947 167.175 43.0122V41.1657C167.175 40.858 167.164 40.6669 167.112 40.3698C167.519 40.1257 167.665 40.0408 167.863 39.871C168.26 39.542 168.479 39.0963 168.479 38.6294C168.479 38.4596 168.458 38.3641 168.406 38.1837H167.467ZM166.058 42.9061C166.058 44.4237 165.588 45.0604 164.493 45.0604C163.387 45.0604 162.917 44.4237 162.917 42.9061V41.2718C162.917 39.7649 163.387 39.1282 164.493 39.1282C165.588 39.1282 166.058 39.7649 166.058 41.2718V42.9061ZM163.856 48H164.889V46.7902H163.856V48Z" fill="white"/>
<path d="M170.191 43.0335H171.527C172.424 43.0335 172.956 42.8849 173.353 42.5241C173.802 42.1102 174 41.5265 174 40.6563C174 39.8498 173.833 39.3192 173.447 38.9053C173.04 38.4702 172.508 38.3004 171.527 38.3004H169.075V45.8775H170.191V43.0335ZM170.17 42.1102V39.2131H171.527C172.476 39.2131 172.894 39.6482 172.894 40.6669C172.894 41.6645 172.476 42.1102 171.527 42.1102H170.17Z" fill="white"/>
<path d="M33.4871 11.0166H20.3746L21.8666 17.9889H30.3596C30.5318 17.9889 30.6752 18.1611 30.5892 18.3332L29.6423 20.7147C29.6136 20.8008 29.4988 20.8869 29.4128 20.8869H13.0292C12.5702 20.8869 12.2258 20.4278 12.398 19.9687L16.9027 8.49164C16.9888 8.2334 17.2471 8.06124 17.534 8.06124H44.9355L47.7761 0.859375H12.5415C12.0537 0.859375 11.5659 1.00284 11.1642 1.28977L8.61056 3.01133C8.20886 3.29825 7.89324 3.67127 7.72108 4.13035L0.318367 23.0388C0.0314398 23.7848 0.117518 24.6456 0.576601 25.3056L1.78169 27.0558C2.24078 27.7157 2.98679 28.1174 3.79018 28.1174H37.1024L43.8165 11.0166H33.4871Z" fill="white"/>
<path d="M82.408 17.989L85.2485 10.7872H57.9618L58.8512 8.52044C58.9373 8.26221 59.1956 8.09005 59.4825 8.09005H86.3102L89.1507 0.888184H55.0351C54.5473 0.888184 54.0596 1.03165 53.6579 1.31857L51.1042 3.04014C50.7025 3.32706 50.3869 3.70007 50.2147 4.15915L42.812 23.039C42.5251 23.785 42.6112 24.6457 43.0703 25.3057L44.2753 27.0559C44.7344 27.7159 45.4804 28.1176 46.2838 28.1176H78.4197L81.2602 20.9157H54.949C54.4899 20.9157 54.1456 20.4566 54.3178 19.9975L55.0925 17.989H82.408Z" fill="white"/>
<path d="M124.184 0.888184L116.494 20.4853C116.408 20.7435 116.15 20.9157 115.863 20.9157C115.547 20.9157 115.289 20.6861 115.203 20.3992L111.1 0.916878H96.352C95.8642 0.916878 95.3764 1.06034 94.9748 1.34727L92.4211 3.06883C92.0194 3.35576 91.7038 3.72876 91.5316 4.18784L84.1289 23.0676C83.842 23.8137 83.9281 24.6744 84.3871 25.3344L85.5922 27.0846C86.0513 27.7446 86.7973 28.1462 87.6007 28.1462H103.439L101.947 21.1739H96.7537C96.2946 21.1739 95.9503 20.7148 96.1225 20.2558L100.713 8.54914C100.799 8.2909 101.058 8.11875 101.345 8.11875C101.66 8.11875 101.918 8.34829 102.004 8.63521L106.108 28.1176H124.385L135.087 0.888184H124.184Z" fill="white"/>
<path d="M161.571 25.3917L162.03 26.5394C162.403 27.4863 163.292 28.0889 164.296 28.0889H174.224L167.768 12.853L161.743 23.2685C161.37 23.9284 161.284 24.7031 161.571 25.3917Z" fill="#C32022"/>
<path d="M167.74 0.888184L144.126 20.7722C144.011 20.887 143.868 20.9157 143.695 20.9157H143.408C142.949 20.9157 142.605 20.4566 142.777 19.9975L150.266 0.888184H139.076L130.411 23.039C130.124 23.785 130.21 24.6457 130.669 25.3057L131.874 27.0559C132.333 27.7159 133.079 28.1176 133.882 28.1176H149.319L167.769 12.8817L182 0.888184H167.74Z" fill="#C32022"/>
</svg>
